# xmcd
#
# Track frame offsets: 
#        150
#        12685
#        24922
#        38260
#        51952
#        64670
#        75422
#        88170
#        99447
#        111172
#        123510
#        134850
#        145232
#        156990
#        167757
#        179290
#        188835
#        200277
#        212357
#        224302
#
# Disc length: 3120 seconds
#
# Revision: 4
# Processed by: cddbd v1.5.1PL0 Copyright (c) Steve Scherf et al.
# Submitted via: ExactAudioCopy v0.95a5
#
DISCID=160c2e14
DTITLE=Carl Smith - The Essential Carl Smith (1950-1956)
DYEAR=1991
DGENRE=Country
TTITLE0=Guilty Conscience
TTITLE1=I Just Dropped In To Say Goodbye
TTITLE2=I Overlooked An Orchid
TTITLE3=If Teardrops Were Pennies
TTITLE4=Let's Live A Little
TTITLE5=(When You Feel Like You're In Love) Don't Just Stand There
TTITLE6=Let Old Mother Nature Have Her Way
TTITLE7=It's A Lovely Lovely World
TTITLE8=Are You Teasing Me
TTITLE9=This Orchid Means Goodbye
TTITLE10=Hey Joe!
TTITLE11=Trademark
TTITLE12=Just Wait Till I Get You Alone
TTITLE13=Dog-Gone It Baby, I'm In Love
TTITLE14=Back Up Buddy
TTITLE15=Go Boy Go
TTITLE16=Loose Talk
TTITLE17=Kisses Don't Lie
TTITLE18=There She Goes
TTITLE19=You Are The One
EXTD=YEAR: 1991
EXTT0=
EXTT1=
EXTT2=
EXTT3=
EXTT4=
EXTT5=
EXTT6=
EXTT7=
EXTT8=
EXTT9=
EXTT10=
EXTT11=
EXTT12=
EXTT13=
EXTT14=
EXTT15=
EXTT16=
EXTT17=
EXTT18=
EXTT19=
PLAYORDER=
